# xmcd
# Track frame offsets:
# 150
# 12502
# 27775
# 41316
# 56401
# 70795
# 85857
# 98930
# 113089
# 129267
# 146121
# 161320
# 179117
# 192176
# 208490
# 222615
# 237058
#
# Disc length: 3397 seconds
# Revision: 0
# Processed by: cddbd v1.5.2PL0 Copyright (c) Steve Scherf et al.
# Submitted via: VisiTrax 2.11.2.271 - For more info visit www.synapsa.com
#
DISCID=f10d4311
DTITLE=Bo Göran Svensson - Pruta and Kör
DYEAR=2011
DGENRE=Svensk Country
TTITLE0=Att du gick baklänges
TTITLE1=Dom tänker på dig
TTITLE2=Det brådskar för Oscar
TTITLE3=RoseMarie
TTITLE4=Om du köper en beg. bil av mig
TTITLE5=Kärleken är blind
TTITLE6=Min bäste dräng
TTITLE7=Vem ska man lita på
TTITLE8=Nya tavlor varje dag
TTITLE9=Mitt återfall
TTITLE10=Längre tid med dig
TTITLE11=Gör dig inte besvär
TTITLE12=I möte med Göte
TTITLE13=Bilden av min vän
TTITLE14=Jag bygger luftslott
TTITLE15=Om det räcker med mitt hjärta
TTITLE16=Vad fick jag för det
EXTD=
EXTT0=
EXTT1=
EXTT2=
EXTT3=
EXTT4=
EXTT5=
EXTT6=
EXTT7=
EXTT8=
EXTT9=
EXTT10=
EXTT11=
EXTT12=
EXTT13=
EXTT14=
EXTT15=
EXTT16=
PLAYORDER=
